<svg id="Layer_1" data-name="Layer 1" xmlns="http://www.w3.org/2000/svg" xmlns:xlink="http://www.w3.org/1999/xlink" viewBox="0 0 512 408"><defs><linearGradient id="linear-gradient" x1="51.55" y1="368.3" x2="498.95" y2="13.16" gradientTransform="matrix(1, 0, 0, -1, 0, 410)" gradientUnits="userSpaceOnUse"><stop offset="0" stop-color="#9013fe"/><stop offset="1" stop-color="#6610f2"/></linearGradient></defs><path d="M56.48,53.32C55.51,25.58,77.13,0,106.34,0H405.7c29.21,0,50.82,25.58,49.86,53.32-.93,26.65.27,61.17,9,89.31S487.93,188.71,512,191v26c-24.07,2.29-38.77,20.14-47.48,48.37s-9.89,62.66-9,89.31c1,27.74-20.65,53.32-49.86,53.32H106.34c-29.21,0-50.82-25.58-49.86-53.32.93-26.65-.28-61.16-9-89.31S24.07,219.29,0,217V191c24.07-2.29,38.8-20.14,47.52-48.37S57.41,80,56.48,53.32Z" style="fill:url(#linear-gradient)"/><g id="Livello_2" data-name="Livello 2"><g id="Livello_1-2" data-name="Livello 1-2"><path d="M296.73,129.75c-18.2-18.2-35.56-35.54-40.73-55.1-5.17,19.56-22.54,36.9-40.74,55.1C188,157,157,188,157,234.32a99,99,0,0,0,198,.09v-.09C355,188,324,157,296.73,129.75M199.09,257.38c-6.07-.2-28.47-38.81,13.08-79.92l27.5,30a2.35,2.35,0,0,1,0,3.32,1.12,1.12,0,0,1-.2.18c-6.56,6.73-34.53,34.78-38,44.48-.72,2-1.77,1.92-2.39,1.9M256,308.27a34,34,0,0,1-34-34h0a35.42,35.42,0,0,1,8.48-22.48c6.14-7.51,25.56-28.62,25.56-28.62s19.11,21.42,25.5,28.55A33.21,33.21,0,0,1,290,274.22a34,34,0,0,1-34,34m65.16-55.21c-.73,1.61-2.4,4.29-4.64,4.37-4,.14-4.44-1.91-7.4-6.29-6.49-9.62-63.2-68.88-73.81-80.34-9.33-10.09-1.31-17.19,2.4-20.92L256,131.6s40.6,38.52,57.51,64.85,11.09,49.1,7.65,56.61" style="fill:#fff"/></g></g></svg>